# xmcd CD database file
#
# Track frame offsets:
#	150
#	39960
#	64873
#	105624
#	134394
#	174671
#	200276
#	226725
#
# Disc length: 3612 seconds
#
# Revision: 1
# Processed by: cddbd v1.5PL3 Copyright (c) Steve Scherf et al.
# Submitted via: CDex 1.50beta10
#
DISCID=630e1a08
DTITLE=Jack Walrath  Miles Griffith - Get Hit  In Your Soul
DYEAR=2000
DGENRE=Jazz
TTITLE0=Motley As An Amorphous Hangdown
TTITLE1=Better Get It In Your Soul
TTITLE2=Oh lord, Don´t Let Them Drop That Atomic Bomb On Me
TTITLE3=A Plea For Sanity
TTITLE4=Freedom
TTITLE5=You Are All The Dope That I Need
TTITLE6=Hymn To Aten 104th Psalm
TTITLE7=He´s There To Heed Your Call
EXTD=YEAR: 2000
EXTT0=
EXTT1=
EXTT2=
EXTT3=
EXTT4=
EXTT5=
EXTT6=
EXTT7=
PLAYORDER=
